<svg width="26" height="26" viewBox="0 0 26 26" fill="none" xmlns="http://www.w3.org/2000/svg">
<path opacity="0.7" d="M12.9976 9.99872C11.345 9.99872 9.99636 11.3474 9.99636 13C9.99636 14.6526 11.345 16.0013 12.9976 16.0013C14.6502 16.0013 15.9988 14.6526 15.9988 13C15.9988 11.3474 14.6502 9.99872 12.9976 9.99872ZM21.999 13C21.999 11.7572 22.0103 10.5256 21.9405 9.28499C21.8707 7.84402 21.5419 6.56515 20.4883 5.51144C19.4323 4.45548 18.1557 4.12901 16.7148 4.05921C15.472 3.98941 14.2404 4.00067 12.9998 4.00067C11.757 4.00067 10.5255 3.98941 9.28489 4.05921C7.84395 4.12901 6.5651 4.45773 5.51141 5.51144C4.45547 6.5674 4.129 7.84402 4.05921 9.28499C3.98941 10.5278 4.00067 11.7594 4.00067 13C4.00067 14.2406 3.98941 15.4744 4.05921 16.715C4.129 18.156 4.45772 19.4348 5.51141 20.4886C6.56736 21.5445 7.84395 21.871 9.28489 21.9408C10.5277 22.0106 11.7593 21.9993 12.9998 21.9993C14.2426 21.9993 15.4742 22.0106 16.7148 21.9408C18.1557 21.871 19.4346 21.5423 20.4883 20.4886C21.5442 19.4326 21.8707 18.156 21.9405 16.715C22.0125 15.4744 21.999 14.2428 21.999 13ZM12.9976 17.6179C10.4422 17.6179 8.3798 15.5555 8.3798 13C8.3798 10.4445 10.4422 8.38213 12.9976 8.38213C15.553 8.38213 17.6154 10.4445 17.6154 13C17.6154 15.5555 15.553 17.6179 12.9976 17.6179ZM17.8045 9.27148C17.2078 9.27148 16.726 8.78966 16.726 8.193C16.726 7.59635 17.2078 7.11452 17.8045 7.11452C18.4011 7.11452 18.8829 7.59635 18.8829 8.193C18.8831 8.33468 18.8554 8.475 18.8012 8.60593C18.7471 8.73686 18.6677 8.85582 18.5675 8.956C18.4673 9.05618 18.3483 9.13561 18.2174 9.18975C18.0865 9.24388 17.9462 9.27166 17.8045 9.27148Z" fill="#1B1B1D"/>
</svg>
