<svg width="26" height="26" viewBox="0 0 26 26" fill="none" xmlns="http://www.w3.org/2000/svg">
<path opacity="0.7" d="M23.8039 17.7032C23.7448 17.6086 23.379 16.8487 21.6189 15.2871C19.7763 13.6518 20.0238 13.9173 22.2432 11.0897C23.5949 9.36766 24.1353 8.31602 23.9662 7.86641C23.8053 7.43783 22.8111 7.55092 22.8111 7.55092L19.5053 7.56932C19.5053 7.56932 19.2605 7.53775 19.0777 7.64157C18.9003 7.74412 18.7861 7.98078 18.7861 7.98078C18.7861 7.98078 18.2623 9.31373 17.5637 10.4469C16.091 12.8381 15.5011 12.9642 15.2604 12.8157C14.7007 12.47 14.841 11.4249 14.841 10.6835C14.841 8.3659 15.2081 7.39976 14.1246 7.14993C13.7643 7.06713 13.5003 7.01194 12.5804 7.00274C11.4005 6.99092 10.4008 7.0067 9.83562 7.27088C9.45883 7.44703 9.16869 7.84008 9.34608 7.86245C9.56476 7.89005 10.0598 7.98998 10.3224 8.33172C10.6621 8.77212 10.6497 9.76333 10.6497 9.76333C10.6497 9.76333 10.8449 12.491 10.1945 12.8301C9.74763 13.0628 9.1357 12.5883 7.82245 10.4179C7.15003 9.30714 6.6413 8.07801 6.6413 8.07801C6.6413 8.07801 6.54367 7.84928 6.36903 7.72707C6.15724 7.57852 5.86021 7.53117 5.86021 7.53117L2.71674 7.54957C2.71674 7.54957 2.24506 7.56274 2.07183 7.75863C1.91779 7.93343 2.05945 8.29365 2.05945 8.29365C2.05945 8.29365 4.52087 13.7977 7.30682 16.5727C9.86312 19.1163 12.7646 18.9494 12.7646 18.9494H14.0791C14.0791 18.9494 14.4766 18.9074 14.6787 18.6984C14.8657 18.5064 14.8589 18.1462 14.8589 18.1462C14.8589 18.1462 14.8327 16.4596 15.6523 16.2112C16.4595 15.9667 17.4963 17.8413 18.595 18.5629C19.4256 19.1085 20.0568 18.9889 20.0568 18.9889L22.9953 18.9494C22.9953 18.9494 24.5327 18.8587 23.8039 17.7032Z" fill="#1B1B1D"/>
</svg>
